<?xml version="1.0" encoding="UTF-8" standalone="no"?>

<svg width="376" xmlns="http://www.w3.org/2000/svg" height="255">
  <!-- I don't love the inline style, but cant get the external stylesheet to work well right now.. will revisit. -->
 <style type="text/css" >
      <![CDATA[
path {
    stroke: black;
    fill-opacity: 0;
}

#sat_body path {
    fill-opacity: 1;
    stroke-width: 1;
}

#arm_decorations path {
    stroke-width: 2;
}

#odd_blocks path {
    fill-opacity: 1;
    fill: black;
}

#skinny_protusions path {
    stroke-width: .5;
}
      ]]>
 </style>


 <g>
  <title>Layer 1</title>
  <g id="sat_body">
   <path d="m147 86.7a20.1 49.1 0 1 1 -40.1 0 20.1 49.1 0 1 1 40.1 0z"/>
   <path d="m146 85l7.84 3.16-8.14 2.91 0.3-6.07z"/>
   <path d="m156 87.7a1.24 2.27 0 1 1 -2.47 0 1.24 2.27 0 1 1 2.47 0z"/>
   <path d="m110 59l-2.05 0.512-2.9-9.55 3.58-0.512 1.19-1.36 1.88-0.171v-4.26l-2.39-0.171-2.39-3.07-2.73-0.512-0.341-3.24 1.71-1.19-0.512-5.97-2.9-2.39-0.853 0.17-0.512-2.05-1.71-0.341-0.853 2.39 0.853 0.683-1.02 1.88-3.92-11.1-7.51-0.171-0.682-2.22-7.85 2.56-1.02-0.682 1.19-0.853v-4.27l-1.88-2.56-0.853 0.171-1.54-2.39-4.09 1.19h-3.92l-2.56-4.26-1.19 0.682 0.512 1.88-9.04 2.39-2.56 5.63 0.682 3.75 4.78 9.21 1.88-0.682 2.05 1.54 2.22-1.19 0.512-2.56-0.171-1.71 2.39-0.683 1.36 1.71-0.682 3.41-1.36 0.171v3.24l1.88 2.56 0.512 2.9 1.71 2.39h2.22l2.05-3.75 1.02 3.75 2.05 0.853 2.73-0.512 1.36-2.05-0.512-2.9 0.853-0.512 0.171-3.92 4.44-1.02-0.171-1.02 2.56-1.02 3.41 7.85-2.05 0.853v2.56l-1.54 1.02v4.95l4.27 1.36 2.22-1.02 3.24 8.87-1.36 3.07h-2.22l0.171 2.05h1.54l-1.02 1.54-9.38-0.341-6.14 8.02-3.07 15.4-3.07 1.88 1.54 15.2 3.41 7.17 2.39-0.171 1.54 2.73 1.36-1.36 8.7 0.341 0.853-1.02 2.56 0.171-0.171 3.07-2.56-0.171 0.341 5.29 7.17-0.171 2.56-1.02 1.88-0.171 0.853-1.88 2.39 0.853-5.8 5.29-4.78 2.73-0.171 21.5-2.56 1.88 2.05 4.44 4.26 2.22 5.12-1.02 2.9-4.44-1.19-3.24-1.02-1.54v-16.5l5.12-5.46-1.42-61.6z"/>
  </g>
  <g id="skinny_protusions">
   <path d="m9 251l87.4-133"/>
   <path d="m75 196l25.5-78.9"/>
   <path d="m62 62l-6.31 12.3 14.7 5.8 5.97-11.8-14.4-6.3z"/>
   <path d="m84 62l-28.8 14.8 20.3 6.65"/>
   <path d="m73 87l-15.7 7.85 0.341 2.73 17.7 5.97"/>
   <path d="m74 90l-8.69 2.95-0.174 2.26 9.9 4.17"/>
   <path d="m98 132l-4.4-2.42 4.12 4.4-9.38 4.83 9.95 3.13-10.2 1.71"/>
   <path d="m97 131l-3.41 1.7"/>
   <path d="m142 119l202 115-2.84 2.84-202-113"/>
   <path d="m141 121l6.39 1.28 16.6 15.1 21 6.43 16.7 14.9 22 6.82 14.9 13.8 20.6 6.25 12.8 12.4 19.8 6.11 14.5 13.1 21.5 7.25 13.8 12.2"/>
   <path d="m141 123l26.1 9.09 16.6 15.2 18.5 4.83 19.8 16.6 19.2 5.26 14.2 13.2 21 6.96 14.4 12.9 20.3 6.96 14.1 12.4 19.9 6.68"/>
   <path d="m141 124l44.6 19.7"/>
   <path d="m203 153l52.9 35.1 55.6 26.7"/>
  </g>
  <g id="arm_decorations">
   <path d="m147 125a1.12 2.04 0 1 1 -2.24 -0.69 1.12 2.04 0 1 1 2.24 0.69z"/>
   <path d="m166 135a1.12 2.04 0 1 1 -2.24 -0.69 1.12 2.04 0 1 1 2.24 0.69z"/>
   <path d="m204 157a1.12 2.04 0 1 1 -2.24 -0.69 1.12 2.04 0 1 1 2.24 0.69z"/>
   <path d="m185 146a1.12 2.04 0 1 1 -2.24 -0.69 1.12 2.04 0 1 1 2.24 0.69z"/>
   <path d="m223 168a1.12 2.04 0 1 1 -2.24 -0.69 1.12 2.04 0 1 1 2.24 0.69z"/>
   <path d="m241 178a1.12 2.04 0 1 1 -2.24 -0.69 1.12 2.04 0 1 1 2.24 0.69z"/>
   <path d="m258 187a1.12 2.04 0 1 1 -2.24 -0.69 1.12 2.04 0 1 1 2.24 0.69z"/>
   <path d="m276 197a1.12 2.04 0 1 1 -2.24 -0.69 1.12 2.04 0 1 1 2.24 0.69z"/>
   <path d="m292 207a1.08 1.93 0 1 1 -2.16 -0.652 1.08 1.93 0 1 1 2.16 0.652z"/>
   <path d="m311 216a1.08 1.87 0 1 1 -2.17 -0.632 1.08 1.87 0 1 1 2.17 0.632z"/>
   <path d="m327 226a1.12 2.04 0 1 1 -2.24 -0.69 1.12 2.04 0 1 1 2.24 0.69z"/>
  </g>
  <g id="odd_blocks">
   <path d="m258 184v-3.58l2.51 0.358v4.84l-2.51-1.62z"/>
   <path d="m342 235l0.716 2.69 3.94-0.895-0.358-2.15-4.3 0.355z"/>
  </g>
  <circle cy="10" cx="54" r="2">
   <animate attributeName="fill" dur="2s" values="black;black;black;black;red;black" repeatCount="indefinite"/>
  </circle>
 </g>
</svg>
